<svg width="207" height="50" viewBox="0 0 207 50" fill="none" xmlns="http://www.w3.org/2000/svg">
<g clip-path="url(#clip0_17700_1462)">
<path fill-rule="evenodd" clip-rule="evenodd" d="M80.1852 6.89263L82.221 8.9285C86.6806 13.388 86.6806 20.6832 82.221 25.1428L74.126 33.2378L68.3335 27.4452L68.9152 26.8636L76.4285 19.3502L77.0102 18.7685C79.4096 16.3691 80.5972 13.2426 80.5972 10.0919C80.5972 9.02545 80.4518 7.93481 80.1852 6.89263ZM92.4489 27.1786C92.158 26.1365 92.0368 25.0458 92.0368 23.9794C92.0368 20.8287 93.2244 17.6779 95.6239 15.3027L96.2055 14.721L103.719 7.20771L104.301 6.62603L98.508 0.833496L90.413 8.9285C85.9535 13.388 85.9535 20.6832 90.413 25.1428L92.4489 27.1786ZM130.67 21.992C130.67 22.8645 130.549 23.6401 130.355 24.3187C130.137 25.0216 129.846 25.6275 129.482 26.1365C129.119 26.6697 128.707 27.1059 128.222 27.4937C127.737 27.8573 127.228 28.1723 126.719 28.3905C126.21 28.6328 125.677 28.8025 125.144 28.9237C124.611 29.0448 124.102 29.0933 123.641 29.0933H106.748V24.7065H123.641C124.49 24.7065 125.144 24.4641 125.604 23.9552C126.065 23.4704 126.307 22.7918 126.307 21.9678C126.307 21.5557 126.235 21.1922 126.113 20.8529C125.992 20.5136 125.798 20.2227 125.58 19.9804C125.362 19.738 125.071 19.5441 124.732 19.3987C124.393 19.2775 124.029 19.2048 123.617 19.2048H113.535C112.832 19.2048 112.056 19.0836 111.256 18.817C110.432 18.5747 109.681 18.1626 108.978 17.6052C108.275 17.0477 107.694 16.2964 107.233 15.3997C106.773 14.5029 106.53 13.388 106.53 12.055C106.53 10.722 106.773 9.63136 107.233 8.73461C107.694 7.83786 108.275 7.08653 108.978 6.52909C109.681 5.97164 110.432 5.55962 111.256 5.29302C112.08 5.05066 112.832 4.90524 113.535 4.90524H128.44V9.26782H113.535C112.711 9.26782 112.056 9.51018 111.596 10.0191C111.135 10.5281 110.893 11.1825 110.893 12.0308C110.893 12.8791 111.135 13.5334 111.596 14.0182C112.056 14.5029 112.711 14.7453 113.535 14.7453H123.641C124.102 14.7453 124.611 14.818 125.144 14.9392C125.677 15.0604 126.21 15.2542 126.719 15.4966C127.253 15.739 127.737 16.054 128.222 16.4418C128.683 16.8296 129.119 17.2659 129.482 17.7991C129.846 18.3323 130.137 18.9382 130.355 19.6168C130.573 20.2954 130.67 21.071 130.67 21.9435V21.992ZM154.204 14.721C154.204 13.8485 154.058 13.073 153.792 12.3701C153.525 11.6672 153.137 11.0613 152.628 10.5766C152.119 10.0676 151.538 9.67984 150.835 9.41323C150.132 9.14663 149.356 9.00121 148.532 9.00121H142.594C141.746 9.00121 140.97 9.14663 140.268 9.41323C139.565 9.67984 138.959 10.0676 138.45 10.5766C137.941 11.0856 137.553 11.6672 137.286 12.3701C137.02 13.073 136.874 13.8485 136.874 14.721V19.326C136.874 20.1985 137.02 20.9741 137.286 21.6769C137.553 22.3798 137.965 22.9857 138.45 23.4704C138.935 23.9552 139.565 24.3672 140.268 24.6338C140.97 24.9004 141.746 25.0458 142.594 25.0458H148.484C149.332 25.0458 150.108 24.9004 150.81 24.6338C151.513 24.3672 152.119 23.9794 152.604 23.4704C153.113 22.9615 153.501 22.3556 153.767 21.6769C154.034 20.9741 154.179 20.1985 154.179 19.326V14.721H154.204ZM158.59 19.326C158.59 20.8044 158.348 22.1374 157.839 23.3735C157.33 24.6096 156.627 25.676 155.73 26.5727C154.834 27.4695 153.767 28.1723 152.531 28.6813C151.295 29.1903 149.962 29.4326 148.508 29.4326H142.57C141.116 29.4326 139.783 29.1903 138.547 28.6813C137.311 28.1723 136.244 27.4937 135.348 26.5727C134.451 25.676 133.748 24.6096 133.239 23.3735C132.73 22.1374 132.463 20.7802 132.463 19.326V14.721C132.463 13.2668 132.706 11.9096 133.239 10.6735C133.748 9.43747 134.451 8.37106 135.348 7.47431C136.244 6.57756 137.311 5.8747 138.547 5.36573C139.783 4.85676 141.116 4.6144 142.57 4.6144H148.508C149.962 4.6144 151.295 4.85676 152.531 5.36573C153.767 5.8747 154.834 6.57756 155.73 7.47431C156.627 8.37106 157.33 9.43747 157.839 10.6735C158.348 11.9096 158.59 13.2668 158.59 14.721V19.326ZM206.603 9.31629H197.587V29.0933H193.2V9.34053H184.184V4.95371H206.627V9.34053L206.603 9.31629ZM182.706 9.31629H160.772V7.15924C160.772 6.84416 160.82 6.57756 160.941 6.28672C161.063 6.02012 161.208 5.77775 161.402 5.58386C161.596 5.38997 161.838 5.22031 162.105 5.12337C162.371 5.00218 162.662 4.95371 162.977 4.95371H182.706V9.31629ZM180.743 14.818V19.229H165.159V29.0933H160.772V14.818H180.743Z" fill="#F1852D"/>
<path fill-rule="evenodd" clip-rule="evenodd" d="M22.249 9.47627H0.314941V7.31921C0.314941 7.00414 0.363415 6.73754 0.484597 6.4467C0.60578 6.1801 0.751199 5.93773 0.945092 5.74384C1.13898 5.54995 1.38135 5.38029 1.64795 5.28334C1.91455 5.16216 2.20539 5.11369 2.52047 5.11369H22.249V9.5005V9.47627ZM20.2859 14.978V19.389H4.70176V29.2533H0.314941V14.978H20.2859ZM41.8079 29.2533H26.3692C26.0542 29.2533 25.7633 29.2048 25.4967 29.0836C25.2301 28.9625 24.9877 28.817 24.7939 28.6231C24.6 28.4293 24.4545 28.1869 24.3334 27.9203C24.2122 27.6537 24.1637 27.3628 24.1637 27.0478V5.11369H28.5505V24.8907H41.8079V29.2775V29.2533ZM65.0992 29.2533H49.297C48.6911 29.2533 48.0367 29.1563 47.3096 28.9382C46.5825 28.7201 45.9281 28.3808 45.298 27.896C44.6921 27.4113 44.1831 26.7812 43.7711 25.9814C43.3591 25.2058 43.1652 24.2363 43.1652 23.1214V14.978H63.1118V19.389H47.5277V23.1214C47.5277 23.6789 47.6732 24.1394 47.9882 24.4302C48.2791 24.7453 48.7396 24.8907 49.3213 24.8907H65.075V29.2775L65.0992 29.2533ZM43.1894 9.47627V7.31921C43.1894 7.00414 43.2379 6.73754 43.3591 6.4467C43.4802 6.1801 43.6257 5.93773 43.8195 5.74384C44.0134 5.54995 44.2558 5.38029 44.5224 5.28334C44.789 5.16216 45.0798 5.11369 45.3949 5.11369H65.1235V9.5005H43.1894V9.47627ZM98.3518 33.3735L96.6068 31.6285C94.5466 29.5684 93.5045 26.8296 93.5045 24.1151C93.5045 22.055 94.0862 20.0192 95.2495 18.2499C95.3949 18.7104 95.6615 19.1224 96.0251 19.486L104.12 27.581L98.3275 33.3735H98.3518ZM73.9456 0.969238L75.6906 2.71427C77.7507 4.77438 78.7929 7.51311 78.7929 10.2276C78.7929 12.2635 78.2112 14.3236 77.0479 16.0928C76.9024 15.6324 76.6358 15.2203 76.2723 14.8568L68.1773 6.76177L73.9698 0.969238H73.9456Z" fill="#155CA8"/>
<path fill-rule="evenodd" clip-rule="evenodd" d="M6.08324 41.4447H3.75653V46.9707H2.66589V41.4447H0.314941V40.4995H6.08324V41.4447Z" fill="white"/>
<path fill-rule="evenodd" clip-rule="evenodd" d="M12.8211 45.0075C12.8211 45.3226 12.7484 45.5892 12.6272 45.8558C12.506 46.0982 12.3364 46.292 12.1183 46.4617C11.8759 46.6556 11.6093 46.7768 11.3185 46.8495C11.0276 46.9222 10.6398 46.9707 10.1551 46.9707H7.46484V40.4995H9.98544C10.4702 40.4995 10.8337 40.4995 11.0761 40.548C11.3185 40.5722 11.5608 40.6449 11.779 40.7661C12.0213 40.8873 12.191 41.057 12.3122 41.2751C12.4333 41.469 12.4818 41.7113 12.4818 42.0022C12.4818 42.3173 12.3849 42.6081 12.2152 42.8262C12.0456 43.0686 11.8032 43.2382 11.5123 43.3837V43.4321C11.9001 43.5291 12.2152 43.6987 12.4576 43.9653C12.6999 44.2319 12.8211 44.5713 12.8211 45.0075ZM11.3427 42.1476C11.3427 42.0022 11.3185 41.881 11.2457 41.7841C11.1973 41.6629 11.1003 41.5902 10.9791 41.5174C10.8095 41.4447 10.6398 41.3963 10.4217 41.372C10.2278 41.372 9.96121 41.372 9.67037 41.372H8.53125V43.1413H9.8885C10.1793 43.1413 10.3732 43.1413 10.5186 43.1171C10.6641 43.1171 10.7853 43.0444 10.9307 42.9474C11.0761 42.8505 11.173 42.7535 11.2457 42.6323C11.2942 42.5111 11.3185 42.3657 11.3185 42.1718L11.3427 42.1476ZM11.682 44.9833C11.682 44.7651 11.6578 44.5955 11.5851 44.4501C11.5123 44.3289 11.3669 44.1835 11.1246 44.0865C10.9791 44.0138 10.8095 43.9653 10.6398 43.9653C10.4702 43.9653 10.2278 43.9653 9.93697 43.9653H8.53125V46.0982H9.54919C9.98545 46.0982 10.3248 46.0982 10.5429 46.0497C10.7853 46.0254 10.9791 45.9527 11.1488 45.8558C11.3185 45.7588 11.4396 45.6377 11.5366 45.4922C11.6093 45.3468 11.6578 45.1772 11.6578 44.9833H11.682Z" fill="white"/>
<path fill-rule="evenodd" clip-rule="evenodd" d="M20.2132 43.8439H15.4386C15.4386 44.2317 15.4871 44.5952 15.6083 44.8861C15.7295 45.1769 15.8991 45.4193 16.093 45.6132C16.2869 45.8071 16.5293 45.9282 16.8201 46.0252C17.0867 46.1221 17.4018 46.1706 17.7411 46.1706C18.1773 46.1706 18.6136 46.0737 19.0741 45.904C19.5104 45.7343 19.8497 45.5647 20.0193 45.395H20.0678V46.5826C19.7042 46.728 19.3165 46.8735 18.9529 46.9704C18.5651 47.0674 18.1773 47.1158 17.7411 47.1158C16.6747 47.1158 15.8264 46.825 15.2205 46.2433C14.6146 45.6616 14.3237 44.8376 14.3237 43.7712C14.3237 42.7048 14.6146 41.8807 15.1962 41.2506C15.7779 40.6204 16.5293 40.3296 17.4745 40.3296C18.347 40.3296 19.0256 40.5962 19.4861 41.1052C19.9708 41.6141 20.189 42.3412 20.189 43.2865V43.8681L20.2132 43.8439ZM19.1468 43.0198C19.1468 42.4382 19.0014 42.0019 18.7105 41.6868C18.4197 41.3718 17.9834 41.2263 17.4018 41.2263C16.8201 41.2263 16.3596 41.396 15.9961 41.7353C15.6567 42.0746 15.4628 42.5109 15.4144 43.0198H19.1226H19.1468Z" fill="white"/>
<path fill-rule="evenodd" clip-rule="evenodd" d="M27.8237 43.6498C27.8237 44.183 27.751 44.6678 27.6056 45.0798C27.4601 45.516 27.242 45.8796 26.9754 46.1947C26.7088 46.4855 26.418 46.7036 26.0787 46.849C25.7394 46.9945 25.3516 47.0914 24.988 47.0914C24.6487 47.0914 24.3336 47.0429 24.067 46.9702C23.8004 46.8975 23.5096 46.7763 23.243 46.6309V49.3454H22.1523V40.4748H23.243V41.1535C23.5338 40.9111 23.8489 40.7172 24.2124 40.5475C24.576 40.3779 24.9638 40.3052 25.3758 40.3052C26.1514 40.3052 26.7815 40.596 27.2178 41.2019C27.654 41.7836 27.8722 42.6077 27.8722 43.6498H27.8237ZM26.6846 43.6498C26.6846 42.8743 26.5634 42.2926 26.2726 41.9048C26.006 41.517 25.5939 41.3231 25.0365 41.3231C24.7214 41.3231 24.4063 41.3958 24.0913 41.517C23.7762 41.6624 23.4611 41.8321 23.1703 42.0502V45.7099C23.4854 45.8553 23.752 45.9523 23.9701 46.0008C24.1882 46.0492 24.4548 46.0735 24.7214 46.0735C25.3273 46.0735 25.8121 45.8796 26.1514 45.4676C26.4907 45.0555 26.6603 44.4496 26.6603 43.6498H26.6846Z" fill="white"/>
<path fill-rule="evenodd" clip-rule="evenodd" d="M35.6279 48.5218H34.61V46.9464H29.7142V48.5218H28.6963V46.0497H29.3991C29.8596 45.2984 30.199 44.4501 30.4171 43.4564C30.6352 42.4869 30.7564 41.4932 30.7564 40.4995H34.8281V46.0497H35.6037V48.5218H35.6279ZM33.7617 46.0497V41.4205H31.7986C31.7501 42.39 31.6047 43.2867 31.3623 44.0865C31.1199 44.8863 30.8291 45.5407 30.514 46.0739H33.786L33.7617 46.0497Z" fill="white"/>
<path fill-rule="evenodd" clip-rule="evenodd" d="M42.4138 46.9702H41.3232V46.2674C41.3232 46.2674 41.105 46.437 40.9354 46.534C40.7657 46.6552 40.6203 46.7521 40.4506 46.8248C40.2568 46.9218 40.0629 46.9945 39.8205 47.0429C39.5781 47.0914 39.3115 47.1399 38.9965 47.1399C38.4148 47.1399 37.93 46.946 37.518 46.5582C37.106 46.1704 36.9121 45.6857 36.9121 45.0798C36.9121 44.595 37.0091 44.183 37.2272 43.8922C37.4453 43.5771 37.7362 43.359 38.1239 43.1651C38.5117 42.9954 38.9965 42.8743 39.5297 42.8015C40.0871 42.7288 40.6688 42.7046 41.2989 42.6561V42.4865C41.2989 42.2441 41.2505 42.026 41.1777 41.8563C41.0808 41.6867 40.9596 41.5655 40.8142 41.4685C40.6688 41.3716 40.4749 41.3231 40.2568 41.2989C40.0386 41.2746 39.8205 41.2504 39.5781 41.2504C39.2873 41.2504 38.9722 41.2989 38.6329 41.3716C38.2694 41.4443 37.93 41.5655 37.5423 41.7109H37.4938V40.596C37.7119 40.5475 38.0028 40.4748 38.4148 40.4021C38.8268 40.3294 39.2146 40.3052 39.6024 40.3052C40.0629 40.3052 40.4506 40.3537 40.79 40.4264C41.1293 40.4991 41.4201 40.6203 41.6625 40.8141C41.9048 40.9838 42.0987 41.2262 42.2199 41.517C42.3411 41.8078 42.4138 42.1472 42.4138 42.5592V46.9702ZM41.3232 45.3706V43.5529C40.9838 43.5529 40.5961 43.6013 40.1598 43.6498C39.6993 43.6983 39.36 43.7468 39.0934 43.8195C38.7783 43.9164 38.536 44.0376 38.3421 44.2315C38.1482 44.4254 38.0512 44.692 38.0512 45.0071C38.0512 45.3706 38.1724 45.6615 38.3905 45.8553C38.6087 46.0492 38.948 46.1462 39.4085 46.1462C39.7963 46.1462 40.1356 46.0735 40.4506 45.9281C40.7657 45.7826 41.0566 45.5887 41.3232 45.3949V45.3706Z" fill="white"/>
<path fill-rule="evenodd" clip-rule="evenodd" d="M49.7334 46.9704H48.6427V44.4013H47.3582L45.3465 46.9704H44.062L46.2433 44.3043C45.6859 44.1589 45.2738 43.9166 45.0072 43.6015C44.7406 43.2864 44.6195 42.8744 44.6195 42.3412C44.6195 42.0019 44.6922 41.711 44.8618 41.4687C45.0072 41.2263 45.2254 41.0324 45.4435 40.887C45.6859 40.7416 45.9525 40.6446 46.2433 40.5961C46.5584 40.5477 46.8735 40.5234 47.237 40.5234H49.7334V46.9946V46.9704ZM48.6427 43.553V41.3717H47.2612C46.9704 41.3717 46.7523 41.3717 46.6068 41.396C46.4857 41.396 46.3402 41.4687 46.1706 41.5414C46.0252 41.6383 45.904 41.7353 45.8313 41.8807C45.7586 42.0261 45.7343 42.1715 45.7343 42.3412C45.7343 42.5593 45.7343 42.729 45.807 42.8501C45.8555 42.9713 45.9525 43.1167 46.0736 43.2137C46.2191 43.3349 46.3887 43.4076 46.6068 43.4318C46.825 43.4803 47.0431 43.5045 47.2855 43.5045H48.6185L48.6427 43.553Z" fill="white"/>
<path fill-rule="evenodd" clip-rule="evenodd" d="M61.8272 43.7225C61.8272 44.7889 61.5606 45.613 61.0032 46.2189C60.47 46.8248 59.7429 47.1399 58.8219 47.1399C57.9009 47.1399 57.1738 46.8248 56.6406 46.2189C56.1074 45.613 55.8408 44.7647 55.8408 43.7225C55.8408 42.6804 56.1074 41.8321 56.6406 41.2262C57.1738 40.6203 57.9009 40.3052 58.8219 40.3052C59.7429 40.3052 60.4458 40.6203 61.0032 41.2262C61.5364 41.8321 61.8272 42.6804 61.8272 43.7225ZM60.6881 43.7225C60.6881 42.8985 60.5185 42.2683 60.2034 41.8563C59.8641 41.4443 59.4278 41.2504 58.8462 41.2504C58.2645 41.2504 57.804 41.4443 57.4647 41.8563C57.1496 42.2683 56.9799 42.8743 56.9799 43.7225C56.9799 44.5708 57.1496 45.1525 57.4647 45.5645C57.804 45.9765 58.2402 46.1947 58.8462 46.1947C59.4521 46.1947 59.8883 46.0008 60.2034 45.5645C60.5427 45.1525 60.6881 44.5466 60.6881 43.7225Z" fill="white"/>
<path fill-rule="evenodd" clip-rule="evenodd" d="M68.6135 46.5584C68.1772 46.7765 67.7894 46.8977 67.4743 46.9946C67.1593 47.0674 66.8442 47.1158 66.5291 47.1158C66.0686 47.1158 65.6324 47.0431 65.2203 46.8977C64.8326 46.7523 64.4933 46.5584 64.2024 46.2675C63.9116 46.0009 63.6934 45.6374 63.548 45.2011C63.4026 44.7891 63.3057 44.2802 63.3057 43.7227C63.3057 42.6805 63.5965 41.8565 64.1539 41.2506C64.7356 40.6447 65.5112 40.3296 66.5049 40.3296C66.8684 40.3296 67.2562 40.3781 67.6198 40.475C67.9833 40.572 68.3226 40.7174 68.6135 40.8628V42.0746H68.5408C68.1772 41.808 67.8379 41.6141 67.4743 41.4687C67.135 41.3475 66.7957 41.2748 66.4564 41.2748C65.802 41.2748 65.3173 41.4929 64.9537 41.9292C64.5902 42.3655 64.4205 42.9714 64.4205 43.7227C64.4205 44.474 64.5902 45.08 64.9537 45.5162C65.3173 45.9282 65.802 46.1464 66.4564 46.1464C66.6745 46.1464 66.9169 46.1221 67.135 46.0494C67.3532 46.0009 67.5713 45.904 67.741 45.8313C67.8864 45.7586 68.0318 45.6616 68.2014 45.5647C68.3469 45.4677 68.468 45.395 68.5165 45.3466H68.5892V46.5342L68.6135 46.5584Z" fill="white"/>
<path fill-rule="evenodd" clip-rule="evenodd" d="M75.7877 46.9707H74.6728V44.0623H71.4494V46.9707H70.3345V40.4995H71.4494V43.1171H74.6728V40.4995H75.7877V46.9707Z" fill="white"/>
<path fill-rule="evenodd" clip-rule="evenodd" d="M83.6886 43.7225C83.6886 44.7889 83.422 45.613 82.8645 46.2189C82.3313 46.8248 81.6042 47.1399 80.6832 47.1399C79.7623 47.1399 79.0352 46.8248 78.5019 46.2189C77.9687 45.613 77.7021 44.7647 77.7021 43.7225C77.7021 42.6804 77.9687 41.8321 78.5019 41.2262C79.0352 40.6203 79.7623 40.3052 80.6832 40.3052C81.6042 40.3052 82.3071 40.6203 82.8645 41.2262C83.3977 41.8321 83.6886 42.6804 83.6886 43.7225ZM82.5495 43.7225C82.5495 42.8985 82.3798 42.2683 82.0647 41.8563C81.7254 41.4443 81.2892 41.2504 80.7075 41.2504C80.1258 41.2504 79.6653 41.4443 79.326 41.8563C79.0109 42.2683 78.8413 42.8743 78.8413 43.7225C78.8413 44.5708 79.0109 45.1525 79.326 45.5645C79.6653 45.9765 80.1016 46.1947 80.7075 46.1947C81.3134 46.1947 81.7497 46.0008 82.0647 45.5645C82.404 45.1525 82.5495 44.5466 82.5495 43.7225Z" fill="white"/>
<path fill-rule="evenodd" clip-rule="evenodd" d="M90.9842 45.0075C90.9842 45.3226 90.9115 45.5892 90.7903 45.8558C90.6691 46.0982 90.4995 46.292 90.2813 46.4617C90.039 46.6556 89.7724 46.7768 89.4815 46.8495C89.1907 46.9222 88.8029 46.9707 88.3182 46.9707H85.6279V40.4995H88.1485C88.6333 40.4995 88.9968 40.4995 89.2392 40.548C89.4815 40.5722 89.7239 40.6449 89.942 40.7661C90.1844 40.8873 90.3541 41.057 90.4752 41.2751C90.5964 41.469 90.6449 41.7113 90.6449 42.0022C90.6449 42.3173 90.5479 42.6081 90.3783 42.8262C90.2086 43.0686 89.9663 43.2382 89.6754 43.3837V43.4321C90.0632 43.5291 90.3783 43.6987 90.6207 43.9653C90.863 44.2319 90.9842 44.5713 90.9842 45.0075ZM89.5058 42.1476C89.5058 42.0022 89.4815 41.881 89.4088 41.7841C89.3604 41.6629 89.2634 41.5902 89.1422 41.5174C88.9726 41.4447 88.8029 41.3963 88.5848 41.372C88.3909 41.372 88.1243 41.372 87.8335 41.372H86.6943V43.1413H88.0516C88.3424 43.1413 88.5363 43.1413 88.6817 43.1171C88.8271 43.1171 88.9483 43.0444 89.0937 42.9474C89.2392 42.8505 89.3361 42.7535 89.4088 42.6323C89.4573 42.5111 89.4815 42.3657 89.4815 42.1718L89.5058 42.1476ZM89.8451 44.9833C89.8451 44.7651 89.8208 44.5955 89.7481 44.4501C89.6754 44.3289 89.53 44.1835 89.2876 44.0865C89.1422 44.0138 88.9726 43.9653 88.8029 43.9653C88.6333 43.9653 88.3909 43.9653 88.1 43.9653H86.6943V46.0982H87.7123C88.1485 46.0982 88.4878 46.0982 88.706 46.0497C88.9483 46.0254 89.1422 45.9527 89.3119 45.8558C89.4815 45.7588 89.6027 45.6377 89.6997 45.4922C89.7724 45.3468 89.8209 45.1772 89.8209 44.9833H89.8451Z" fill="white"/>
<path fill-rule="evenodd" clip-rule="evenodd" d="M97.9885 46.9702H96.8979V46.2674C96.8979 46.2674 96.6797 46.437 96.5101 46.534C96.3404 46.6552 96.195 46.7521 96.0254 46.8248C95.8315 46.9218 95.6376 46.9945 95.3952 47.0429C95.1528 47.0914 94.8862 47.1399 94.5712 47.1399C93.9895 47.1399 93.5048 46.946 93.0927 46.5582C92.6807 46.1704 92.4868 45.6857 92.4868 45.0798C92.4868 44.595 92.5838 44.183 92.8019 43.8922C93.02 43.5771 93.3109 43.359 93.6986 43.1651C94.0864 42.9954 94.5712 42.8743 95.1044 42.8015C95.6618 42.7288 96.2435 42.7046 96.8736 42.6561V42.4865C96.8736 42.2441 96.8252 42.026 96.7524 41.8563C96.6555 41.6867 96.5343 41.5655 96.3889 41.4685C96.2435 41.3716 96.0496 41.3231 95.8315 41.2989C95.6133 41.2746 95.3952 41.2504 95.1528 41.2504C94.862 41.2504 94.5469 41.2989 94.2076 41.3716C93.8441 41.4443 93.5047 41.5655 93.117 41.7109H93.0685V40.596C93.2866 40.5475 93.5775 40.4748 93.9895 40.4021C94.4015 40.3294 94.7893 40.3052 95.1771 40.3052C95.6376 40.3052 96.0253 40.3537 96.3647 40.4264C96.704 40.4991 96.9948 40.6203 97.2372 40.8141C97.4795 40.9838 97.6734 41.2262 97.7946 41.517C97.9158 41.8078 97.9885 42.1472 97.9885 42.5592V46.9702ZM96.8979 45.3706V43.5529C96.5586 43.5529 96.1708 43.6013 95.7345 43.6498C95.274 43.6983 94.9347 43.7468 94.6681 43.8195C94.353 43.9164 94.1107 44.0376 93.9168 44.2315C93.7229 44.4254 93.6259 44.692 93.6259 45.0071C93.6259 45.3706 93.7471 45.6615 93.9652 45.8553C94.1834 46.0492 94.5227 46.1462 94.9832 46.1462C95.371 46.1462 95.7103 46.0735 96.0254 45.9281C96.3404 45.7826 96.6313 45.5887 96.8979 45.3949V45.3706Z" fill="white"/>
<path fill-rule="evenodd" clip-rule="evenodd" d="M108.943 41.4447H105.575V46.9707H104.484V40.4995H108.943V41.4447Z" fill="white"/>
<path fill-rule="evenodd" clip-rule="evenodd" d="M115.802 46.9707H114.712V42.0991L111.318 46.9707H110.325V40.4995H111.415V45.2984L114.76 40.4995H115.802V46.9707Z" fill="white"/>
<path fill-rule="evenodd" clip-rule="evenodd" d="M122.952 41.4446C123.219 41.7112 123.437 42.0505 123.558 42.4383C123.703 42.8261 123.776 43.2623 123.776 43.7956C123.776 44.765 123.485 45.5648 122.903 46.195C122.322 46.8251 121.619 47.1644 120.771 47.1644C120.359 47.1644 119.971 47.0917 119.607 46.9463C119.268 46.8009 118.953 46.5828 118.711 46.2919C118.395 45.9284 118.177 45.4679 118.008 44.9104C117.862 44.353 117.79 43.6744 117.79 42.8503C117.79 42.5595 117.79 42.2687 117.838 41.9536C117.862 41.6627 117.935 41.2992 118.032 40.8872C118.105 40.5236 118.226 40.1843 118.371 39.845C118.517 39.5057 118.686 39.2391 118.904 39.0452C119.171 38.7544 119.559 38.5362 119.995 38.3666C120.456 38.1969 121.037 38.0757 121.789 38.003C122.104 37.9788 122.37 37.9545 122.637 37.9303C122.903 37.9303 123.122 37.9061 123.34 37.8818V38.8998C123.097 38.8998 122.831 38.924 122.588 38.9482C122.346 38.9482 122.104 38.9725 121.837 38.9967C121.352 39.0452 120.892 39.1179 120.504 39.2391C120.116 39.3603 119.825 39.5057 119.632 39.6996C119.438 39.8935 119.268 40.1601 119.171 40.4994C119.074 40.8387 119.001 41.1538 118.977 41.4446C119.268 41.2265 119.583 41.0568 119.922 40.9114C120.262 40.766 120.625 40.6933 121.013 40.6933C121.377 40.6933 121.716 40.7418 122.055 40.8629C122.395 40.9841 122.685 41.1538 122.928 41.4204L122.952 41.4446ZM122.661 43.844C122.661 43.1412 122.491 42.608 122.152 42.2444C121.813 41.8809 121.352 41.7112 120.795 41.7112C120.456 41.7112 120.14 41.7597 119.825 41.8809C119.51 41.9778 119.22 42.1232 118.953 42.3171C118.953 42.4141 118.953 42.5353 118.953 42.6564C118.953 42.7776 118.953 42.8988 118.953 43.02C118.953 43.6986 119.001 44.2318 119.123 44.6438C119.244 45.0559 119.389 45.3952 119.607 45.6375C119.777 45.8557 119.971 46.0011 120.189 46.0738C120.407 46.1465 120.625 46.195 120.868 46.195C121.449 46.195 121.91 45.9768 122.225 45.5648C122.54 45.1528 122.71 44.5711 122.71 43.844H122.661Z" fill="white"/>
<path fill-rule="evenodd" clip-rule="evenodd" d="M131.58 46.9707H130.15L127.46 43.9896H126.854V46.9707H125.764V40.4995H126.854V43.2867C127.218 43.2867 127.509 43.214 127.727 43.0928C127.945 42.9716 128.139 42.7535 128.284 42.4627C128.333 42.3657 128.381 42.2445 128.454 42.1234C128.502 42.0022 128.551 41.881 128.599 41.7841C128.793 41.3478 129.06 41.0327 129.351 40.8146C129.666 40.5965 130.078 40.4995 130.659 40.4995H131.168V41.4447H130.684C130.369 41.4447 130.15 41.5174 129.957 41.6386C129.787 41.7598 129.617 41.9779 129.496 42.3173C129.351 42.6808 129.181 42.9474 129.011 43.1413C128.842 43.311 128.648 43.4564 128.454 43.5533L131.58 46.9949V46.9707Z" fill="white"/>
<path fill-rule="evenodd" clip-rule="evenodd" d="M138.463 46.9707H137.373V42.0991L134.004 46.9707H132.986V40.4995H134.101V45.2984L137.421 40.4995H138.463V46.9707Z" fill="white"/>
<path fill-rule="evenodd" clip-rule="evenodd" d="M146.461 46.9707H145.08L143.262 44.4743L141.396 46.9707H140.136L142.656 43.7472L140.16 40.4995H141.541L143.359 42.9474L145.177 40.4995H146.461L143.917 43.6745L146.461 46.9707Z" fill="white"/>
<path fill-rule="evenodd" clip-rule="evenodd" d="M158.022 43.6498C158.022 44.183 157.95 44.6678 157.804 45.0798C157.659 45.516 157.441 45.8796 157.174 46.1947C156.908 46.4855 156.617 46.7036 156.277 46.849C155.938 46.9945 155.575 47.0914 155.187 47.0914C154.847 47.0914 154.532 47.0429 154.266 46.9702C153.999 46.8975 153.708 46.7763 153.442 46.6309V49.3454H152.351V40.4748H153.442V41.1535C153.733 40.9111 154.048 40.7172 154.411 40.5475C154.775 40.3779 155.163 40.3052 155.575 40.3052C156.35 40.3052 156.98 40.596 157.417 41.2019C157.853 41.7836 158.071 42.6077 158.071 43.6498H158.022ZM156.883 43.6498C156.883 42.8743 156.762 42.2926 156.471 41.9048C156.205 41.517 155.793 41.3231 155.235 41.3231C154.92 41.3231 154.605 41.3958 154.29 41.517C153.975 41.6624 153.66 41.8321 153.369 42.0502V45.7099C153.684 45.8553 153.951 45.9523 154.169 46.0008C154.387 46.0492 154.654 46.0735 154.92 46.0735C155.526 46.0735 156.011 45.8796 156.35 45.4676C156.689 45.0555 156.859 44.4496 156.859 43.6498H156.883Z" fill="white"/>
<path fill-rule="evenodd" clip-rule="evenodd" d="M165.39 43.8439H160.616C160.616 44.2317 160.664 44.5952 160.786 44.8861C160.907 45.1769 161.076 45.4193 161.27 45.6132C161.464 45.8071 161.706 45.9282 161.997 46.0252C162.264 46.1221 162.579 46.1706 162.918 46.1706C163.355 46.1706 163.791 46.0737 164.251 45.904C164.688 45.7343 165.027 45.5647 165.197 45.395H165.245V46.5826C164.881 46.728 164.494 46.8735 164.13 46.9704C163.742 47.0674 163.355 47.1158 162.918 47.1158C161.852 47.1158 161.004 46.825 160.398 46.2433C159.792 45.6616 159.501 44.8376 159.501 43.7712C159.501 42.7048 159.792 41.8807 160.373 41.2506C160.955 40.6204 161.707 40.3296 162.652 40.3296C163.524 40.3296 164.203 40.5962 164.663 41.1052C165.148 41.6141 165.366 42.3412 165.366 43.2865V43.8681L165.39 43.8439ZM164.324 43.0198C164.324 42.4382 164.179 42.0019 163.888 41.6868C163.597 41.3718 163.161 41.2263 162.579 41.2263C161.997 41.2263 161.537 41.396 161.173 41.7353C160.834 42.0746 160.64 42.5109 160.592 43.0198H164.3H164.324Z" fill="white"/>
<path fill-rule="evenodd" clip-rule="evenodd" d="M175.545 46.9707H167.281V40.4995H168.371V46.0254H170.868V40.4995H171.958V46.0254H174.455V40.4995H175.545V46.9707Z" fill="white"/>
<path fill-rule="evenodd" clip-rule="evenodd" d="M183.349 43.8439H178.575C178.575 44.2317 178.623 44.5952 178.744 44.8861C178.866 45.1769 179.035 45.4193 179.229 45.6132C179.423 45.8071 179.665 45.9282 179.956 46.0252C180.223 46.1221 180.538 46.1706 180.877 46.1706C181.314 46.1706 181.75 46.0737 182.21 45.904C182.647 45.7343 182.986 45.5647 183.156 45.395H183.204V46.5826C182.84 46.728 182.453 46.8735 182.089 46.9704C181.701 47.0674 181.314 47.1158 180.877 47.1158C179.811 47.1158 178.963 46.825 178.357 46.2433C177.751 45.6616 177.46 44.8376 177.46 43.7712C177.46 42.7048 177.751 41.8807 178.332 41.2506C178.914 40.6204 179.665 40.3296 180.611 40.3296C181.483 40.3296 182.162 40.5962 182.622 41.1052C183.107 41.6141 183.325 42.3412 183.325 43.2865V43.8681L183.349 43.8439ZM182.283 43.0198C182.283 42.4382 182.138 42.0019 181.847 41.6868C181.556 41.3718 181.12 41.2263 180.538 41.2263C179.956 41.2263 179.496 41.396 179.132 41.7353C178.793 42.0746 178.599 42.5109 178.551 43.0198H182.259H182.283Z" fill="white"/>
<path fill-rule="evenodd" clip-rule="evenodd" d="M190.669 46.9707H189.578V44.0623H186.33V46.9707H185.24V40.4995H186.33V43.1171H189.578V40.4995H190.669V46.9707Z" fill="white"/>
<path fill-rule="evenodd" clip-rule="evenodd" d="M198.522 46.9707H197.431V42.0991L194.062 46.9707H193.068V40.4995H194.159V45.2984L197.504 40.4995H198.522V46.9707Z" fill="white"/>
<path fill-rule="evenodd" clip-rule="evenodd" d="M206.374 46.9702H205.283V42.0987L201.915 46.9702H200.921V40.4991H202.012V45.2979L205.356 40.4991H206.398V46.9702H206.374ZM205.744 37.93C205.744 38.5117 205.55 38.9479 205.211 39.263C204.871 39.5781 204.362 39.7477 203.708 39.7477C203.054 39.7477 202.545 39.5781 202.205 39.263C201.866 38.9479 201.672 38.4874 201.672 37.93H202.666C202.666 38.342 202.763 38.6329 202.933 38.8025C203.102 38.9722 203.369 39.0691 203.708 39.0691C204.047 39.0691 204.314 38.9722 204.484 38.8025C204.653 38.6329 204.75 38.342 204.75 37.9058H205.744V37.93Z" fill="white"/>
</g>
<defs>
<clipPath id="clip0_17700_1462">
<rect width="206.544" height="50" fill="white"/>
</clipPath>
</defs>
</svg>
