<svg width="30" height="30" viewBox="0 0 30 30" fill="none" xmlns="http://www.w3.org/2000/svg">
<g clip-path="url(#clip0_16485_1971)">
<path d="M1 4.8884C1 18.2144 11.8051 29.0196 25.1312 29.0196C25.7309 29.0196 26.3273 28.9965 26.9205 28.9536C27.5993 28.9042 27.9354 28.8779 28.2452 28.7032C28.4989 28.5549 28.7428 28.2946 28.8713 28.031C29.0261 27.7113 29.0261 27.3357 29.0261 26.5877V22.2017C29.0261 21.5723 29.0261 21.2592 28.924 20.989C28.8317 20.7518 28.6834 20.5376 28.4923 20.3728C28.2748 20.185 27.9783 20.0762 27.3884 19.862L22.3961 18.0464C21.7074 17.7959 21.3647 17.6707 21.0384 17.6938C20.7518 17.7135 20.475 17.8091 20.2377 17.9772C19.9708 18.165 19.783 18.478 19.4073 19.1074L18.1287 21.2395C14.0031 19.371 10.6584 16.0231 8.78669 11.8974L10.9187 10.6188C11.5448 10.2432 11.8579 10.0554 12.049 9.78844C12.217 9.55448 12.3126 9.27768 12.3324 8.9877C12.3522 8.66147 12.2269 8.31876 11.9798 7.63005L10.1641 2.63774C9.94991 2.04789 9.84117 1.75132 9.65334 1.53383C9.48528 1.34271 9.27439 1.19442 9.03713 1.10215C8.76692 1 8.45387 1 7.82447 1H3.43849C2.69047 1 2.3181 1 1.99846 1.15488C1.73155 1.28339 1.47122 1.52395 1.32623 1.78098C1.14829 2.09073 1.12522 2.42685 1.07579 3.10567C1.03295 3.69552 1.00989 4.29196 1.00989 4.8917L1 4.8884Z" stroke="white" stroke-width="2" stroke-linecap="round" stroke-linejoin="round"/>
</g>
<defs>
<clipPath id="clip0_16485_1971">
<rect width="30" height="30" fill="white"/>
</clipPath>
</defs>
</svg>
