<svg width="21" height="21" viewBox="0 0 21 21" fill="none" xmlns="http://www.w3.org/2000/svg">
<path d="M20.2432 2.67416C20.8551 2.06231 20.8551 1.0703 20.2432 0.458444C19.6314 -0.153409 18.6394 -0.153409 18.0275 0.458443L10.3511 8.13487L2.67465 0.458443C2.06279 -0.153409 1.07078 -0.153409 0.458931 0.458443C-0.152921 1.0703 -0.152921 2.0623 0.458931 2.67416L8.13536 10.3506L0.458932 18.027C-0.152921 18.6389 -0.152921 19.6309 0.458932 20.2427C1.07078 20.8546 2.06279 20.8546 2.67464 20.2427L10.3511 12.5663L18.0275 20.2427C18.6394 20.8546 19.6314 20.8546 20.2432 20.2427C20.8551 19.6309 20.8551 18.6389 20.2432 18.027L12.5668 10.3506L20.2432 2.67416Z" fill="white"/>
</svg>
