<svg width="30" height="30" viewBox="0 0 30 30" fill="none" xmlns="http://www.w3.org/2000/svg">
<g clip-path="url(#clip0_17736_1545)">
<path d="M15 30C23.2843 30 30 23.2843 30 15C30 6.71573 23.2843 0 15 0C6.71573 0 0 6.71573 0 15C0 23.2843 6.71573 30 15 30Z" fill="#F0F0F0"/>
<path d="M29.0673 20.217C29.6702 18.592 30.0002 16.8344 30.0002 14.9996C30.0002 13.1648 29.6702 11.4072 29.0673 9.78223H0.933232C0.330303 11.4072 0.000244141 13.1648 0.000244141 14.9996C0.000244141 16.8344 0.330303 18.592 0.933232 20.217L15.0002 21.5213L29.0673 20.217Z" fill="#0052B4"/>
<path d="M15.0004 29.9994C21.4498 29.9994 26.948 25.9288 29.0674 20.2168H0.93335C3.05274 25.9288 8.55089 29.9994 15.0004 29.9994Z" fill="#D80027"/>
</g>
<defs>
<clipPath id="clip0_17736_1545">
<rect width="30" height="30" fill="white"/>
</clipPath>
</defs>
</svg>
