<svg width="30" height="30" viewBox="0 0 30 30" fill="none" xmlns="http://www.w3.org/2000/svg">
<g clip-path="url(#clip0_17736_1551)">
<path d="M0.708526 10.4344C0.249033 11.874 0.000185557 13.4075 0.000244151 14.9995C0.000185557 16.5915 0.249092 18.1252 0.708584 19.5647L15.0003 20.217L29.2919 19.5648C29.7514 18.1252 30.0003 16.5915 30.0003 14.9996C30.0003 13.4076 29.7514 11.874 29.2919 10.4344L15.0003 9.78223L0.708526 10.4344Z" fill="#F0F0F0"/>
<path d="M29.2915 10.4344L14.9998 9.78223L0.708125 10.4344C0.571953 10.8612 0.454707 11.2963 0.356445 11.7387H29.643C29.5449 11.2963 29.4277 10.8611 29.2915 10.4344Z" fill="#D80027"/>
<path d="M0.356445 18.2607C0.45459 18.7031 0.571836 19.1382 0.708008 19.565L0.709414 19.5651L14.9996 20.2172L29.2913 19.5651C29.4274 19.1383 29.5447 18.7031 29.6429 18.2607H0.356445Z" fill="#D80027"/>
<path d="M15.0006 30.0012C21.6929 30.0012 27.3607 25.6182 29.2922 19.5664H0.708984C2.64053 25.6181 8.30842 30.0012 15.0006 30.0012Z" fill="#6DA544"/>
<path d="M15.0002 -0.000976562C8.30793 -0.000917968 2.64016 4.38207 0.708496 10.4338L29.2918 10.4339C27.3603 4.38201 21.6925 -0.00103516 15.0002 -0.000976562Z" fill="#338AF3"/>
<path d="M6.85445 6.19449C6.85445 4.78959 7.84181 3.61596 9.16035 3.32803C8.95773 3.28373 8.74744 3.25977 8.53146 3.25977C6.91064 3.25977 5.59668 4.57367 5.59668 6.19455C5.59668 7.81543 6.91053 9.12934 8.53146 9.12934C8.74744 9.12934 8.95767 9.10532 9.16035 9.06108C7.84187 8.77303 6.85445 7.5994 6.85445 6.19449Z" fill="#F0F0F0"/>
<path d="M10.8944 7.52734L11.093 8.13877H11.7359L11.2158 8.5167L11.4145 9.12813L10.8944 8.75026L10.3742 9.12813L10.5729 8.5167L10.0527 8.13877H10.6956L10.8944 7.52734Z" fill="#F0F0F0"/>
<path d="M12.947 7.52734L13.1457 8.13877H13.7886L13.2684 8.5167L13.4671 9.12813L12.947 8.75026L12.4269 9.12813L12.6255 8.5167L12.1055 8.13877H12.7483L12.947 7.52734Z" fill="#F0F0F0"/>
<path d="M14.9986 7.52734L15.1973 8.13877H15.8402L15.3201 8.5167L15.5187 9.12813L14.9986 8.75026L14.4784 9.12813L14.6772 8.5167L14.157 8.13877H14.7999L14.9986 7.52734Z" fill="#F0F0F0"/>
<path d="M17.0511 7.52734L17.2498 8.13877H17.8926L17.3726 8.5167L17.5712 9.12813L17.0511 8.75026L16.5309 9.12813L16.7297 8.5167L16.2095 8.13877H16.8524L17.0511 7.52734Z" fill="#F0F0F0"/>
<path d="M19.103 7.52734L19.3017 8.13877H19.9446L19.4245 8.5167L19.6232 9.12813L19.103 8.75026L18.5829 9.12813L18.7816 8.5167L18.2615 8.13877H18.9043L19.103 7.52734Z" fill="#F0F0F0"/>
<path d="M12.947 5.39355L13.1457 6.00492H13.7886L13.2684 6.38291L13.4671 6.99428L12.947 6.61641L12.4269 6.99428L12.6255 6.38291L12.1055 6.00492H12.7483L12.947 5.39355Z" fill="#F0F0F0"/>
<path d="M14.9986 5.39355L15.1973 6.00492H15.8402L15.3201 6.38291L15.5187 6.99428L14.9986 6.61641L14.4784 6.99428L14.6772 6.38291L14.157 6.00492H14.7999L14.9986 5.39355Z" fill="#F0F0F0"/>
<path d="M17.0511 5.39355L17.2498 6.00492H17.8926L17.3726 6.38291L17.5712 6.99428L17.0511 6.61641L16.5309 6.99428L16.7297 6.38291L16.2095 6.00492H16.8524L17.0511 5.39355Z" fill="#F0F0F0"/>
<path d="M19.103 5.39355L19.3017 6.00492H19.9446L19.4245 6.38291L19.6232 6.99428L19.103 6.61641L18.5829 6.99428L18.7816 6.38291L18.2615 6.00492H18.9043L19.103 5.39355Z" fill="#F0F0F0"/>
<path d="M14.9986 3.25977L15.1973 3.87125H15.8402L15.3201 4.24912L15.5187 4.86061L14.9986 4.48273L14.4784 4.86061L14.6772 4.24912L14.157 3.87125H14.7999L14.9986 3.25977Z" fill="#F0F0F0"/>
<path d="M17.0511 3.25977L17.2498 3.87125H17.8926L17.3726 4.24912L17.5712 4.86061L17.0511 4.48273L16.5309 4.86061L16.7297 4.24912L16.2095 3.87125H16.8524L17.0511 3.25977Z" fill="#F0F0F0"/>
<path d="M19.103 3.25977L19.3017 3.87125H19.9446L19.4245 4.24912L19.6232 4.86061L19.103 4.48273L18.5829 4.86061L18.7816 4.24912L18.2615 3.87125H18.9043L19.103 3.25977Z" fill="#F0F0F0"/>
</g>
<defs>
<clipPath id="clip0_17736_1551">
<rect width="30" height="30" fill="white"/>
</clipPath>
</defs>
</svg>
