<svg width="30" height="30" viewBox="0 0 30 30" fill="none" xmlns="http://www.w3.org/2000/svg">
<g clip-path="url(#clip0_17736_1574)">
<path d="M15 30C23.2843 30 30 23.2843 30 15C30 6.71573 23.2843 0 15 0C6.71573 0 0 6.71573 0 15C0 23.2843 6.71573 30 15 30Z" fill="#F0F0F0"/>
<path d="M3.10089 5.86621C1.92263 7.3992 1.03417 9.16609 0.516846 11.0856H8.32024L3.10089 5.86621Z" fill="#0052B4"/>
<path d="M29.4837 11.0855C28.9664 9.16609 28.0779 7.3992 26.8997 5.86621L21.6804 11.0855H29.4837Z" fill="#0052B4"/>
<path d="M0.516846 18.9131C1.03423 20.8325 1.92269 22.5994 3.10089 24.1323L8.32007 18.9131H0.516846Z" fill="#0052B4"/>
<path d="M24.1319 3.09973C22.5989 1.92147 20.8321 1.03301 18.9126 0.515625V8.31897L24.1319 3.09973Z" fill="#0052B4"/>
<path d="M5.86743 26.8969C7.40042 28.0752 9.16732 28.9636 11.0867 29.481V21.6777L5.86743 26.8969Z" fill="#0052B4"/>
<path d="M11.0867 0.515625C9.16726 1.03301 7.40036 1.92146 5.86743 3.09967L11.0867 8.3189V0.515625Z" fill="#0052B4"/>
<path d="M18.9126 29.481C20.832 28.9636 22.5989 28.0752 24.1318 26.897L18.9126 21.6777V29.481Z" fill="#0052B4"/>
<path d="M21.6804 18.9131L26.8997 24.1324C28.0779 22.5994 28.9664 20.8325 29.4837 18.9131H21.6804Z" fill="#0052B4"/>
<path d="M29.873 13.0435H16.9566H16.9566V0.126973C16.3161 0.0435938 15.6631 0 15 0C14.3368 0 13.6839 0.0435938 13.0435 0.126973V13.0434V13.0434H0.126973C0.0435938 13.6839 0 14.3369 0 15C0 15.6632 0.0435938 16.3161 0.126973 16.9565H13.0434H13.0434V29.873C13.6839 29.9564 14.3368 30 15 30C15.6631 30 16.3161 29.9565 16.9565 29.873V16.9566V16.9566H29.873C29.9564 16.3161 30 15.6632 30 15C30 14.3369 29.9564 13.6839 29.873 13.0435Z" fill="#D80027"/>
<path d="M18.9131 18.9141L25.6066 25.6076C25.9145 25.2999 26.2081 24.9782 26.4883 24.6447L20.7577 18.9141H18.9131V18.9141Z" fill="#D80027"/>
<path d="M11.0869 18.9141H11.0868L4.39331 25.6075C4.70104 25.9154 5.02278 26.209 5.3563 26.4892L11.0869 20.7585V18.9141Z" fill="#D80027"/>
<path d="M11.0867 11.0863V11.0862L4.39319 4.39258C4.08534 4.70031 3.79167 5.02205 3.51147 5.35557L9.24212 11.0862H11.0867V11.0863Z" fill="#D80027"/>
<path d="M18.9131 11.088L25.6067 4.39436C25.2989 4.0865 24.9772 3.79283 24.6437 3.5127L18.9131 9.24334V11.088Z" fill="#D80027"/>
</g>
<defs>
<clipPath id="clip0_17736_1574">
<rect width="30" height="30" fill="white"/>
</clipPath>
</defs>
</svg>
