<svg width="30" height="30" viewBox="0 0 30 30" fill="none" xmlns="http://www.w3.org/2000/svg">
<path d="M25.5 6.75C25.5 7.99264 24.4926 9 23.25 9C22.0074 9 21 7.99264 21 6.75C21 5.50736 22.0074 4.5 23.25 4.5C24.4926 4.5 25.5 5.50736 25.5 6.75Z" fill="white"/>
<path fill-rule="evenodd" clip-rule="evenodd" d="M15 22.5C19.1421 22.5 22.5 19.1421 22.5 15C22.5 10.8579 19.1421 7.5 15 7.5C10.8579 7.5 7.5 10.8579 7.5 15C7.5 19.1421 10.8579 22.5 15 22.5ZM15 19.5C17.4853 19.5 19.5 17.4853 19.5 15C19.5 12.5147 17.4853 10.5 15 10.5C12.5147 10.5 10.5 12.5147 10.5 15C10.5 17.4853 12.5147 19.5 15 19.5Z" fill="white"/>
<path fill-rule="evenodd" clip-rule="evenodd" d="M0 14.4C0 9.35953 0 6.83929 0.980941 4.91409C1.8438 3.22063 3.22063 1.8438 4.91409 0.980941C6.83929 0 9.35953 0 14.4 0H15.6C20.6405 0 23.1607 0 25.0859 0.980941C26.7794 1.8438 28.1562 3.22063 29.0191 4.91409C30 6.83929 30 9.35953 30 14.4V15.6C30 20.6405 30 23.1607 29.0191 25.0859C28.1562 26.7794 26.7794 28.1562 25.0859 29.0191C23.1607 30 20.6405 30 15.6 30H14.4C9.35953 30 6.83929 30 4.91409 29.0191C3.22063 28.1562 1.8438 26.7794 0.980941 25.0859C0 23.1607 0 20.6405 0 15.6V14.4ZM14.4 3H15.6C18.1697 3 19.9166 3.00233 21.2669 3.11265C22.5821 3.22011 23.2547 3.41489 23.7239 3.65396C24.8529 4.2292 25.7708 5.14708 26.346 6.27606C26.5851 6.74526 26.7799 7.41787 26.8873 8.73311C26.9977 10.0834 27 11.8303 27 14.4V15.6C27 18.1697 26.9977 19.9166 26.8873 21.2669C26.7799 22.5821 26.5851 23.2547 26.346 23.7239C25.7708 24.8529 24.8529 25.7708 23.7239 26.346C23.2547 26.5851 22.5821 26.7799 21.2669 26.8873C19.9166 26.9977 18.1697 27 15.6 27H14.4C11.8303 27 10.0834 26.9977 8.73311 26.8873C7.41787 26.7799 6.74526 26.5851 6.27606 26.346C5.14708 25.7708 4.2292 24.8529 3.65396 23.7239C3.41489 23.2547 3.22011 22.5821 3.11265 21.2669C3.00233 19.9166 3 18.1697 3 15.6V14.4C3 11.8303 3.00233 10.0834 3.11265 8.73311C3.22011 7.41787 3.41489 6.74526 3.65396 6.27606C4.2292 5.14708 5.14708 4.2292 6.27606 3.65396C6.74526 3.41489 7.41787 3.22011 8.73311 3.11265C10.0834 3.00233 11.8303 3 14.4 3Z" fill="white"/>
</svg>
